# File created by Blade
# Date/Time:  Mon Nov 18 18:33:23 2013
# Frame Rate: 100.000 fps
#------------------------------------------------------
:FULLY-SPECIFIED
:DEGREES
104
root 54.550293 -1.809119 50.837541 -2.530102 3.905097 -122.636740
Spine 11.067976 -1.451218 -0.980006
Spine1 2.858501 1.118927 -2.498227
Spine2 0.536579 -2.224547 -2.655657
NeckDummy 0.005876 -0.022093 -0.015730 -1.372019 2.161804 -0.781994
Neck 16.460268 0.096655 26.934178
Head -0.272808 0.351278 0.276369 -35.921440 -4.023114 -0.447177
LeftShoulderDummy -0.063462 -0.014094 0.018725 -1.350323 2.044653 -0.581906
LeftShoulder 7.840096 -4.461008 13.899943
LeftArm 15.715916 47.080372 25.495962
LeftForeArm 88.197085
LeftForeArmRoll -34.567625
LeftHand -9.290303 4.135599 -3.684323
LeftHandThumb1 16.275610 12.395221
LeftHandIndex1 15.157838 42.717088
LeftHandPinky1 14.712993 47.962518
RightShoulderDummy -0.045285 0.013253 0.081879 -1.394544 -2.158190 0.762941
RightShoulder 5.998770 4.983475 18.252879
RightArm -44.908284 68.574908 -8.625445
RightForeArm 112.949941
RightForeArmRoll 5.506861
RightHand -18.058770 -16.674057 11.534109
RightHandThumb1 -0.626038 12.941389
RightHandIndex1 13.800228 59.111799
RightHandPinky1 18.718539 68.820530
LeftUpLeg 7.689995 19.274161 -26.638700
LeftLeg 41.498646
LeftFoot 0.486638 -1.013985 -0.528438 -14.632206 7.888673 -5.522428
LeftToeBase -2.517114
RightUpLeg 16.123006 13.573967 -21.206545
RightLeg 55.191142
RightFoot -0.361324 0.425574 0.276772 -0.360545 4.577118 -29.336702
RightToeBase -1.226475
105
root 54.539163 -1.828651 50.834692 -2.548829 3.847688 -122.538411
Spine 11.137561 -1.504881 -0.936975
Spine1 2.875276 1.084888 -2.411522
Spine2 0.561880 -2.202378 -2.655262
NeckDummy 0.006042 -0.021522 -0.016833 -1.395341 2.159849 -0.780542
Neck 16.549653 0.197692 26.743676
Head -0.267215 0.349987 0.275962 -35.896925 -3.954631 -0.404912
LeftShoulderDummy -0.063130 -0.013321 0.018590 -1.373384 2.043044 -0.579973
LeftShoulder 7.769655 -4.423540 13.829639
LeftArm 15.559882 47.055988 25.631703
LeftForeArm 88.155106
LeftForeArmRoll -34.436312
LeftHand -9.290243 4.055917 -3.690114
LeftHandThumb1 16.347349 12.411041
LeftHandIndex1 15.137440 42.842848
LeftHandPinky1 14.711057 48.004952
RightShoulderDummy -0.045476 0.013855 0.081783 -1.417301 -2.156002 0.758804
RightShoulder 5.939509 5.071021 18.152933
RightArm -44.956874 68.896275 -8.954255
RightForeArm 112.908422
RightForeArmRoll 5.373024
RightHand -17.900091 -16.624912 11.661215
RightHandThumb1 -0.850444 12.765088
RightHandIndex1 13.634885 59.088672
RightHandPinky1 18.561309 68.388241
LeftUpLeg 7.776808 19.414674 -26.892549
LeftLeg 41.847207
LeftFoot 0.518905 -1.030458 -0.542596 -15.176140 7.559584 -5.559561
LeftToeBase -2.066629
RightUpLeg 15.924827 13.408113 -21.293819
RightLeg 55.387500
RightFoot -0.367870 0.429353 0.270720 -0.163662 4.927854 -29.405103
RightToeBase -1.179462
106
root 54.518781 -1.846787 50.833581 -2.574416 3.777187 -122.396700
Spine 11.204497 -1.513290 -0.926691
Spine1 2.897841 1.070156 -2.385882
Spine2 0.570928 -2.247594 -2.605128
NeckDummy 0.005989 -0.022129 -0.017087 -1.394721 2.127571 -0.788371
Neck 16.580381 0.300346 26.584825
Head -0.262574 0.348422 0.275842 -35.902836 -3.895700 -0.358042
LeftShoulderDummy -0.063240 -0.013956 0.019165 -1.372109 2.010874 -0.588593
LeftShoulder 7.845616 -4.445545 13.829810
LeftArm 15.537363 46.854249 25.899844
LeftForeArm 88.153714
LeftForeArmRoll -34.297607
LeftHand -9.287811 3.990802 -3.764690
LeftHandThumb1 16.161343 12.732116
LeftHandIndex1 15.165048 42.916266
LeftHandPinky1 14.721109 48.034367
RightShoulderDummy -0.046417 0.013503 0.080787 -1.416657 -2.122496 0.764199
RightShoulder 5.864428 5.098831 18.105456
RightArm -44.910246 69.150318 -9.095149
RightForeArm 112.870728
RightForeArmRoll 5.208884
RightHand -17.827795 -16.322014 11.484520
RightHandThumb1 -1.369695 12.669219
RightHandIndex1 13.888063 57.977542
RightHandPinky1 18.783305 67.071292
LeftUpLeg 7.719604 19.496172 -27.103488
LeftLeg 42.182997
LeftFoot 0.542081 -1.038118 -0.534865 -15.577285 7.496079 -5.712369
LeftToeBase -1.578922
RightUpLeg 15.833054 13.307538 -21.317993
RightLeg 55.567809
RightFoot -0.365743 0.431661 0.263397 -0.021233 5.189138 -29.480852
RightToeBase -1.107366
107
root 54.499264 -1.864249 50.838748 -2.565911 3.744453 -122.301274
Spine 11.249653 -1.552333 -0.910369
Spine1 2.897552 1.050085 -2.367531
Spine2 0.557552 -2.257155 -2.667371
NeckDummy 0.006380 -0.019899 -0.016780 -1.395642 2.173564 -0.796206
Neck 16.689175 0.337951 26.477986
Head -0.260849 0.350093 0.276795 -35.939929 -3.859371 -0.362621
LeftShoulderDummy -0.063367 -0.012019 0.018307 -1.373489 2.057401 -0.595714
LeftShoulder 7.880066 -4.532494 13.820223
LeftArm 15.438162 46.677884 25.942165
LeftForeArm 88.156602
LeftForeArmRoll -34.167360
LeftHand -9.330103 3.997196 -3.707715
LeftHandThumb1 16.075391 12.789421
LeftHandIndex1 15.231979 42.773654
LeftHandPinky1 14.779498 48.018033
RightShoulderDummy -0.046047 0.015744 0.082393 -1.416590 -2.169535 0.772241
RightShoulder 5.795525 5.150346 17.965820
RightArm -44.903022 69.385500 -9.278392
RightForeArm 112.882608
RightForeArmRoll 5.140909
RightHand -17.705209 -16.799188 11.426033
RightHandThumb1 -1.109742 13.017869
RightHandIndex1 14.131381 59.730275
RightHandPinky1 18.895866 68.214577
LeftUpLeg 7.690164 19.515706 -27.273589
LeftLeg 42.364035
LeftFoot 0.526164 -1.040203 -0.549541 -15.043528 7.280126 -5.638163
LeftToeBase -1.901129
RightUpLeg 15.732300 13.258336 -21.383595
RightLeg 55.731202
RightFoot -0.366184 0.431342 0.256822 0.064600 5.384293 -29.533714
RightToeBase -1.143076
108
root 54.473836 -1.881833 50.845168 -2.555709 3.681030 -122.186509
Spine 11.266319 -1.548020 -0.907732
Spine1 2.903994 1.034619 -2.355855
Spine2 0.585492 -2.327554 -2.526268
NeckDummy 0.005701 -0.019715 -0.017624 -1.411109 2.076062 -0.800579
Neck 16.732035 0.448156 26.361528
Head -0.258068 0.351155 0.278074 -35.957882 -3.829846 -0.345544
LeftShoulderDummy -0.064429 -0.011850 0.019975 -1.389043 1.959932 -0.599083
LeftShoulder 8.020405 -4.545306 13.820973
LeftArm 15.596840 46.541175 26.229428
LeftForeArm 88.175935
LeftForeArmRoll -34.077748
LeftHand -9.316292 4.053054 -3.767858
LeftHandThumb1 16.091278 12.879036
LeftHandIndex1 15.346505 42.872000
LeftHandPinky1 14.867679 47.990019
RightShoulderDummy -0.048054 0.016284 0.079825 -1.432952 -2.069638 0.772373
RightShoulder 5.722795 5.124493 17.970437
RightArm -44.739887 69.483042 -9.236012
RightForeArm 112.892807
RightForeArmRoll 5.397819
RightHand -17.772706 -16.438575 11.440221
RightHandThumb1 -1.150531 12.769740
RightHandIndex1 13.751424 59.003253
RightHandPinky1 18.688166 68.188695
LeftUpLeg 7.523901 19.480586 -27.420540
LeftLeg 42.519620
LeftFoot 0.525978 -1.037593 -0.552444 -14.764878 7.269215 -5.638784
LeftToeBase -2.158458
RightUpLeg 15.664149 13.208153 -21.429674
RightLeg 55.894082
RightFoot -0.362731 0.432084 0.248999 0.075066 5.567838 -29.593557
RightToeBase -1.128522
109
root 54.446879 -1.897553 50.850762 -2.545046 3.631435 -122.097668
Spine 11.283135 -1.550752 -0.916333
Spine1 2.908136 1.029945 -2.381052
Spine2 0.592826 -2.397821 -2.474700
NeckDummy 0.005493 -0.020252 -0.017740 -1.406682 2.042631 -0.810154
Neck 16.772774 0.477118 26.289586
Head -0.257802 0.353673 0.276088 -35.953336 -3.808733 -0.348324
LeftShoulderDummy -0.065116 -0.012791 0.020181 -1.384941 1.926895 -0.608765
LeftShoulder 7.946419 -4.528012 13.801577
LeftArm 15.464646 46.587506 26.136399
LeftForeArm 88.227045
LeftForeArmRoll -34.069066
LeftHand -9.269762 4.031719 -3.686854
LeftHandThumb1 16.132898 12.789525
LeftHandIndex1 15.293161 42.913524
LeftHandPinky1 14.737585 47.889904
RightShoulderDummy -0.048612 0.015836 0.079038 -1.427963 -2.036713 0.782591
RightShoulder 5.765005 5.185834 17.940091
RightArm -44.186829 69.762155 -8.724242
RightForeArm 112.790312
RightForeArmRoll 5.488994
RightHand -17.833395 -16.752280 11.607604
RightHandThumb1 -0.981771 12.926652
RightHandIndex1 13.831644 59.730474
RightHandPinky1 18.768991 69.016648
LeftUpLeg 7.307660 19.413149 -27.511849
LeftLeg 42.629314
LeftFoot 0.522983 -1.036374 -0.549644 -14.306220 7.443187 -5.628696
LeftToeBase -2.609388
RightUpLeg 15.644142 13.188770 -21.455064
RightLeg 56.012520
RightFoot -0.370426 0.430215 0.245817 0.014210 5.669421 -29.604918
RightToeBase -1.168012
110
root 54.421293 -1.912559 50.851070 -2.567283 3.533665 -122.015573
Spine 11.331938 -1.538258 -0.923512
Spine1 2.919035 1.037473 -2.397511
Spine2 0.595052 -2.438697 -2.410553
NeckDummy 0.005215 -0.020443 -0.017731 -1.406564 1.998729 -0.811379
Neck 16.823392 0.503743 26.228685
Head -0.252284 0.352977 0.278172 -35.947951 -3.772412 -0.310633
LeftShoulderDummy -0.065891 -0.012975 0.020788 -1.385158 1.883377 -0.607914
LeftShoulder 8.014133 -4.547763 13.871737
LeftArm 15.577431 46.557303 26.310118
LeftForeArm 88.215911
LeftForeArmRoll -34.077401
LeftHand -9.268315 3.992899 -3.620042
LeftHandThumb1 16.084671 12.861502
LeftHandIndex1 15.296542 42.883958
LeftHandPinky1 14.731497 47.907870
RightShoulderDummy -0.049261 0.015750 0.078050 -1.427902 -1.991896 0.782265
RightShoulder 5.587580 5.196712 17.861995
RightArm -44.369104 69.819211 -8.934959
RightForeArm 112.779210
RightForeArmRoll 5.330470
RightHand -17.818852 -16.771186 11.390224
RightHandThumb1 -1.321625 12.972658
RightHandIndex1 14.151297 59.445148
RightHandPinky1 18.910941 68.334366
LeftUpLeg 7.108688 19.410994 -27.553778
LeftLeg 42.700764
LeftFoot 0.530412 -1.027053 -0.560454 -14.640036 7.507681 -5.843502
LeftToeBase -2.224907
RightUpLeg 15.607564 13.113306 -21.445349
RightLeg 56.116889
RightFoot -0.359456 0.434185 0.247904 0.126724 5.775382 -29.631219
RightToeBase -1.132958
